<svg width="20" height="20" viewBox="0 0 28 28" fill="none" xmlns="http://www.w3.org/2000/svg">
<g clip-path="url(#clip0_6900_81268)">
<path d="M19.5716 16.5375C19.5716 14.8991 19.6276 13.2928 19.6837 12.0951C19.7398 10.8974 19.7959 10.1163 19.7959 10.1123C19.8079 9.92401 19.7118 9.75176 19.5595 9.65963C19.5555 9.6356 19.5515 9.61156 19.5435 9.58753C19.1069 8.3057 18.0173 7.37637 17.2042 6.58324C17.2042 6.56722 17.2122 6.55119 17.2122 6.53116C17.2122 6.51915 17.3284 5.55777 17.3284 4.88882C17.3284 4.73259 17.3244 4.59239 17.3003 4.45219C17.2883 4.38009 17.2723 4.30799 17.2202 4.20785C17.1922 4.15577 17.1561 4.09569 17.076 4.02759C16.9999 3.9635 16.8677 3.90341 16.7395 3.90742C16.6594 3.90742 16.5833 3.92744 16.5272 3.95148C14.7807 4.68052 13.4989 5.48567 11.6322 6.09454C11.448 6.15863 11.3398 6.2788 11.2757 6.37895C11.1636 6.5552 11.1195 6.71943 11.0794 6.89969C10.9673 7.42845 10.9593 8.10541 10.9593 8.49797C10.9593 8.56207 10.9593 8.61414 10.9593 8.66221C10.751 8.73031 10.4706 8.82644 10.1701 8.94261C9.8657 9.05878 9.54124 9.19898 9.24081 9.34719C8.94038 9.50341 8.67199 9.65963 8.45569 9.87194C8.3235 10.0041 8.28344 10.1964 8.33551 10.3646C8.26341 10.4488 8.21935 10.5569 8.21935 10.6771C8.21935 13.0805 8.19531 15.4639 8.19531 16.3532C8.19531 18.2799 8.20332 20.7675 8.20332 20.7675C8.20332 20.9157 8.27142 21.0559 8.38759 21.148C8.39159 21.148 9.27285 21.8531 10.2903 22.5621C10.799 22.9146 11.3398 23.2711 11.8325 23.5475C12.0809 23.6837 12.3132 23.8038 12.5335 23.892C12.7578 23.9801 12.9581 24.0442 13.1945 24.0482H13.1985C13.3306 24.0482 13.4989 24.0201 13.6511 23.912C13.6872 23.92 13.7192 23.924 13.7553 23.924C13.8394 23.924 13.9235 23.904 13.9996 23.8559C13.9996 23.8559 14.8448 23.3632 15.9464 22.7543C17.048 22.1415 18.4139 21.4124 19.4274 20.9397C19.6156 20.8516 19.7278 20.6593 19.7078 20.451C19.5996 19.2774 19.5636 17.8954 19.5636 16.5335L19.5716 16.5375ZM16.5833 7.34433C17.3203 8.05734 18.1295 8.81443 18.498 9.61157C17.741 10.2805 16.5833 10.9415 15.5899 11.4262C15.0371 11.6985 14.5364 11.9189 14.1719 12.0711C14.0957 12.1031 14.0236 12.1312 13.9595 12.1592L12.1169 9.16292C13.0102 8.98267 14.7687 8.50598 16.5873 7.34433H16.5833ZM11.9887 7.40842C12.0088 7.23217 12.0408 7.07194 12.0688 6.98381C13.7553 6.415 14.969 5.718 16.343 5.10112C16.3349 5.34547 16.3149 5.63388 16.2909 5.87022C16.2668 6.1346 16.2428 6.3469 16.2348 6.40298C15.0371 7.20012 13.8394 7.67279 12.9341 7.94518C12.5375 8.06536 12.197 8.14547 11.9367 8.19754C11.9407 7.94919 11.9567 7.66078 11.9847 7.40842H11.9887ZM9.68945 10.2204C10.07 10.0282 10.5507 9.83989 10.9352 9.7037C11.0474 9.66364 11.1475 9.62759 11.2397 9.59955L12.8299 12.1792L9.55325 10.6651C9.44109 10.613 9.31692 10.609 9.20876 10.641C9.20876 10.605 9.19674 10.5689 9.18873 10.5369C9.28086 10.4528 9.47314 10.3326 9.69746 10.2204H9.68945ZM12.9421 23.0027C12.9421 23.0027 12.9141 22.9907 12.898 22.9867C12.3172 22.7583 11.3078 22.1014 10.4906 21.5086C10.078 21.2121 9.70547 20.9317 9.43308 20.7274C9.33694 20.6513 9.25282 20.5872 9.18473 20.5352C9.18473 19.8702 9.17671 17.9274 9.17671 16.3612C9.17671 15.5961 9.19674 13.6694 9.20075 11.5904L13.1784 13.429C13.0342 14.2262 12.7378 16.201 12.7378 18.9769C12.7378 20.1827 12.7939 21.5366 12.9421 23.0107V23.0027ZM13.9035 22.7904C13.7673 21.3924 13.7152 20.1106 13.7152 18.9689C13.7152 17.1944 13.8394 15.7563 13.9636 14.7669C14.0236 14.2702 14.0877 13.8897 14.1318 13.6333C14.1799 13.3769 14.2079 13.2528 14.2079 13.2488C14.2199 13.2007 14.2199 13.1526 14.2159 13.1086C14.5804 12.9603 15.2494 12.6799 16.0145 12.3034C16.9158 11.8588 17.9412 11.298 18.7744 10.645C18.7103 11.7186 18.5902 14.086 18.5902 16.5375C18.5902 17.7913 18.6222 19.0611 18.7103 20.2027C17.048 21.0038 14.7967 22.2777 13.8995 22.7904H13.9035Z" fill="#E59CBD"/>
<path d="M9.62976 26.7764C9.76595 26.9046 9.86609 26.9447 9.98226 26.9927C10.4149 27.149 10.9396 27.2171 11.7087 27.2811C12.4538 27.3412 13.3631 27.3733 14.3365 27.3733C15.6303 27.3733 16.9402 27.3172 18.1299 27.2131C19.8764 27.0608 21.4907 26.2196 23.073 24.6454C24.491 23.2314 25.7207 21.4007 26.8383 19.6302C27.6074 18.4005 28 16.8062 28 14.8874C27.992 11.4906 26.7863 7.74524 25.6567 5.37385C24.7033 3.41906 22.6363 2.09317 19.3396 1.31205C17.2326 0.823351 14.729 0.583008 11.6767 0.583008H11.6567C9.5897 0.583008 7.8432 0.987586 6.31302 1.82078C4.903 2.58587 3.58913 3.73151 2.05494 5.52607C0.680973 7.15239 0.00801144 9.49574 0 12.6963C0 15.3481 0.480687 17.9718 0.841202 19.7103C1.20572 21.3567 2.47554 22.963 4.6226 24.4892C5.49185 25.098 6.42518 25.6148 7.32246 25.9913C8.12361 26.3198 8.79657 26.508 9.3814 26.5601L9.48555 26.5681L9.53762 26.6563C9.56166 26.7003 9.59371 26.7364 9.62976 26.7724V26.7764ZM4.79485 4.32035C5.49585 3.69145 6.16881 3.20275 6.8578 2.83022C8.2598 2.07314 9.74592 1.73265 11.6767 1.72864H11.7167C14.6129 1.72864 17.0884 1.96498 19.0752 2.42965C21.0901 2.89431 23.6898 3.8677 24.6192 5.87056C25.6526 8.01763 26.8544 11.6668 26.8463 14.8874C26.8463 16.5698 26.5059 17.9999 25.8609 19.0213C25.188 20.0949 24.6312 20.9241 24.1104 21.6331L23.9622 21.8374L23.798 21.6451C20.966 18.3244 17.8695 15.292 14.5928 12.6322C13.1388 11.4505 11.5966 10.3409 10.1024 9.26741L9.50157 8.8348C7.96338 7.72521 6.20486 6.39932 4.83891 4.65683L4.64263 4.45654L4.79485 4.31634V4.32035ZM7.76309 24.9298C6.5133 24.413 5.14335 23.5478 4.10587 22.6225C2.93619 21.589 2.15508 20.4434 1.96681 19.474C1.76252 18.5046 1.14564 15.5524 1.14564 12.6963C1.14163 10.7095 1.44607 7.98558 2.92418 6.27514C3.13247 6.03079 3.33677 5.80246 3.54106 5.57814L3.69728 5.4059L3.84549 5.58615C5.61202 7.78129 7.96338 9.45568 10.2386 11.07C11.2721 11.803 12.3376 12.5641 13.3351 13.3613C16.78 16.1132 19.9805 19.2256 22.8486 22.6145C22.8847 22.6585 22.9288 22.6946 22.9768 22.7347L23.1491 22.8628L23.0089 23.0271C22.7285 23.3515 22.4881 23.6079 22.2598 23.8362C20.8538 25.2342 19.5079 25.9432 18.0258 26.0754C16.8721 26.1756 15.5943 26.2316 14.3325 26.2316C13.2629 26.2316 12.2615 26.1916 11.5084 26.1195C11.1519 26.0834 10.8395 26.0394 10.6272 25.9953C10.5351 25.9753 10.4629 25.9553 10.4269 25.9432L10.3748 25.9152C10.3748 25.9152 10.3468 25.8952 10.3348 25.8872L10.2787 25.8551L10.2546 25.795C10.1625 25.5747 9.94621 25.4425 9.70586 25.4425C9.24521 25.4425 8.50415 25.2502 7.7671 24.9418L7.76309 24.9298Z" fill="#E59CBD"/>
</g>
<defs>
<clipPath id="clip0_6900_81268">
<rect width="28" height="28" fill="white"/>
</clipPath>
</defs>
</svg>
