<svg width="17" height="16" viewBox="0 0 17 16" fill="none" xmlns="http://www.w3.org/2000/svg">
<g clip-path="url(#clip0_6900_82569)">
<path fill-rule="evenodd" clip-rule="evenodd" d="M10.312 1.66208C10.8379 1.44418 11.4016 1.33203 11.9708 1.33203C12.54 1.33203 13.1037 1.44418 13.6296 1.66208C14.1554 1.87994 14.6331 2.19923 15.0354 2.60173C15.4379 3.0041 15.7575 3.48204 15.9753 4.00782C16.1932 4.53369 16.3054 5.09735 16.3054 5.66658C16.3054 6.23582 16.1932 6.79947 15.9753 7.32535C15.7574 7.85117 15.4381 8.32893 15.0356 8.73132C15.0355 8.73136 15.0356 8.73128 15.0356 8.73132L9.14222 14.6247C8.88187 14.885 8.45976 14.885 8.19941 14.6247L2.30608 8.73132C1.49326 7.9185 1.03662 6.81608 1.03662 5.66658C1.03662 4.51708 1.49326 3.41466 2.30608 2.60184C3.1189 1.78902 4.22132 1.33239 5.37081 1.33239C6.52031 1.33239 7.62273 1.78902 8.43555 2.60184L8.67081 2.83711L8.90597 2.60195C8.906 2.60192 8.90593 2.60199 8.90597 2.60195C9.30836 2.1994 9.78622 1.87996 10.312 1.66208ZM11.9708 2.66536C11.5767 2.66536 11.1865 2.74301 10.8224 2.89386C10.4584 3.04471 10.1276 3.26582 9.849 3.54454L9.14222 4.25132C8.88187 4.51167 8.45976 4.51167 8.19941 4.25132L7.49274 3.54465C6.92997 2.98188 6.16669 2.66572 5.37081 2.66572C4.57494 2.66572 3.81166 2.98188 3.24889 3.54465C2.68612 4.10742 2.36995 4.8707 2.36995 5.66658C2.36995 6.46246 2.68612 7.22574 3.24889 7.78851L8.67081 13.2104L14.0927 7.78851C14.3715 7.50992 14.5927 7.17903 14.7435 6.81496C14.8944 6.45089 14.972 6.06067 14.972 5.66658C14.972 5.2725 14.8944 4.88228 14.7435 4.51821C14.5927 4.15414 14.3716 3.82336 14.0929 3.54476C13.8143 3.26604 13.4833 3.04471 13.1192 2.89386C12.7551 2.74301 12.3649 2.66536 11.9708 2.66536Z" fill="#8B8B8B"/>
</g>
<defs>
<clipPath id="clip0_6900_82569">
<rect width="16" height="16" fill="white" transform="translate(0.670898)"/>
</clipPath>
</defs>
</svg>
