<svg width="17" height="16" viewBox="0 0 17 16" fill="none" xmlns="http://www.w3.org/2000/svg">
<g clip-path="url(#clip0_6901_82854)">
<path d="M10.312 1.66208C10.8379 1.44418 11.4016 1.33203 11.9708 1.33203C12.54 1.33203 13.1037 1.44418 13.6296 1.66208C14.1555 1.87998 14.6332 2.19935 15.0357 2.60195C15.4382 3.00432 15.7575 3.48204 15.9753 4.00782C16.1932 4.53369 16.3054 5.09735 16.3054 5.66658C16.3054 6.23582 16.1932 6.79947 15.9753 7.32535C15.7574 7.85117 15.4381 8.32893 15.0356 8.73132L9.14222 14.6247C8.88187 14.885 8.45976 14.885 8.19941 14.6247L2.30608 8.73132C1.49326 7.9185 1.03662 6.81608 1.03662 5.66658C1.03662 4.51708 1.49326 3.41466 2.30608 2.60184C3.1189 1.78902 4.22132 1.33239 5.37081 1.33239C6.52031 1.33239 7.62273 1.78903 8.43555 2.60184L8.67081 2.83711L8.90597 2.60195C9.30836 2.1994 9.78622 1.87996 10.312 1.66208Z" fill="#E59CBD"/>
</g>
<defs>
<clipPath id="clip0_6901_82854">
<rect width="16" height="16" fill="white" transform="translate(0.670898)"/>
</clipPath>
</defs>
</svg>
