<svg width="20" height="20" viewBox="0 0 28 28" fill="none" xmlns="http://www.w3.org/2000/svg">
<g clip-path="url(#clip0_6900_81296)">
<path d="M21.4935 11.0794C21.5055 10.9031 21.4454 10.7269 21.3132 10.5907C21.0969 10.3783 20.7323 10.0378 20.2716 9.74132C20.0472 9.6011 19.8029 9.46088 19.5344 9.35672C20.1153 9.03221 20.6882 8.49136 20.8685 7.66606C20.9607 7.24139 20.9927 6.85679 20.9927 6.54029C20.9927 5.93534 20.8805 5.55474 20.8685 5.51067C20.8325 5.38648 20.7564 5.28231 20.6642 5.20619C20.5761 4.97383 20.3517 4.80957 20.0873 4.80957C19.5344 4.81758 18.9735 5.0179 18.4287 5.31036C17.8878 5.60682 17.379 5.99543 17.0305 6.49622C16.8783 6.71657 16.7701 6.94893 16.686 7.18931C16.4416 6.84877 16.1331 6.55632 15.8286 6.29591C15.3479 5.89928 14.8831 5.60682 14.5466 5.45458C14.4144 5.39449 14.2742 5.38648 14.146 5.41853C14.1339 5.41051 14.1179 5.40651 14.1019 5.4025C13.7814 5.29033 13.4288 5.45859 13.3127 5.77909C13.3006 5.81916 12.9962 6.66448 12.9962 7.79025C12.9962 7.87839 12.9962 7.96653 13.0042 8.05467C13.0042 8.10675 13.0202 8.15483 13.0242 8.2029C13.0002 8.19088 12.9761 8.17886 12.9521 8.16685C12.7357 8.07069 12.4914 8.11076 12.3191 8.24697L12.3071 8.23896C11.9946 8.09473 11.63 8.23095 11.4858 8.54344C11.4537 8.60754 11.1933 9.20848 11.1933 10.2621C11.1933 10.3583 11.1933 10.4544 11.2013 10.5586C11.2053 10.6307 11.2174 10.6948 11.2294 10.7629C11.1292 10.6868 11.0331 10.6267 10.9329 10.5706C10.6324 10.4104 10.2559 10.5225 10.0956 10.823C10.0595 10.8911 10.0355 10.9632 10.0275 11.0354C10.0075 11.0554 9.99144 11.0754 9.97541 11.0954C9.92333 11.1595 9.38649 11.8927 9.34242 13.1827C9.34242 13.2148 9.34242 13.2348 9.34242 13.2428C9.34642 13.4311 9.37847 13.6114 9.42254 13.7917C9.22223 13.6675 9.03794 13.5673 8.89772 13.5032C8.66936 13.4031 8.41696 13.4511 8.24068 13.6034C8.00832 13.6034 7.78797 13.7436 7.68381 13.972C7.65977 14.024 7.35129 14.7372 7.34728 15.8429C7.34728 15.927 7.34728 16.0152 7.35529 16.1073C7.4234 17.0047 8.02835 17.6337 8.62128 18.1385C8.90172 18.3669 9.19018 18.5592 9.46261 18.7114C9.06598 19.2202 9.00188 19.2282 8.39292 19.9974C7.85207 20.6825 8.08845 20.4141 7.62372 20.987C7.167 21.5519 6.7864 22.0046 6.68224 22.1088C6.44186 22.3491 6.44186 22.7417 6.68224 22.9821C6.80243 23.1023 6.96268 23.1624 7.11892 23.1624C7.27517 23.1624 7.43542 23.1023 7.55561 22.9821C7.75993 22.7778 8.11248 22.3491 8.58523 21.7642C9.5227 20.6064 9.53472 20.6264 10.3119 19.6329C10.4161 19.7651 10.5363 19.8772 10.6765 19.9934C11.3135 20.4942 12.2991 21.015 13.3287 21.0351C13.553 21.0351 13.7854 21.007 14.0098 20.9309C15.1956 20.5263 15.8326 19.9053 15.8767 19.8612C16.0249 19.713 16.081 19.5127 16.049 19.3204C16.077 19.1321 16.0169 18.9358 15.8727 18.7915C15.7565 18.6794 15.5962 18.5432 15.4039 18.3989C15.6043 18.3829 15.8046 18.3428 16.0009 18.2587C17.1907 17.7539 17.6795 16.9807 17.7236 16.9086C17.956 16.7003 18.008 16.3517 17.8277 16.0913C17.7116 15.927 17.5673 15.7828 17.4111 15.6506C17.5313 15.6346 17.6555 15.6105 17.7757 15.5705C18.8694 15.2019 19.4182 14.7051 19.5344 14.5929C19.7508 14.3886 19.7948 14.0481 19.6186 13.7957L19.6065 13.7757C19.4583 13.5633 19.246 13.3229 18.9896 13.0746C19.1458 13.0625 19.3021 13.0345 19.4583 12.9824C20.7243 12.5457 21.3653 11.6523 21.4054 11.6042C21.5175 11.452 21.5456 11.2637 21.5055 11.0914L21.4935 11.0794ZM11.8504 16.8204C11.8944 16.8365 11.9425 16.8485 11.9946 16.8605C12.0226 16.8645 12.0507 16.8685 12.0787 16.8685C12.1348 16.9446 12.1909 17.0168 12.259 17.0809C12.1068 17.0969 11.9585 17.1329 11.8183 17.177C11.8343 17.0608 11.8464 16.9446 11.8504 16.8204ZM13.6171 13.6875C13.6772 13.7116 13.7453 13.7316 13.8134 13.7476C13.8255 13.8077 13.8415 13.8678 13.8695 13.9199C13.9777 14.1242 14.1139 14.2684 14.2742 14.4167C14.2261 14.4167 14.174 14.4167 14.1179 14.4247C13.9537 14.4367 13.7974 14.4687 13.6492 14.5088C13.6612 14.4006 13.6692 14.2925 13.6692 14.1843C13.6692 14.02 13.6532 13.8518 13.6171 13.6875ZM15.5041 11.0634C15.5361 11.0754 15.5682 11.0874 15.6002 11.0995C15.6083 11.1756 15.6283 11.2477 15.6643 11.3158C15.7565 11.4881 15.8687 11.6243 16.0049 11.7605C15.8166 11.7965 15.6363 11.8486 15.464 11.9167C15.5001 11.7445 15.5241 11.5602 15.5281 11.3719C15.5281 11.2717 15.5201 11.1676 15.5041 11.0634ZM18.0401 7.19732C18.2164 6.93691 18.601 6.61641 19.0136 6.39606C19.254 6.25985 19.5104 6.15969 19.7267 6.1036C19.7428 6.21578 19.7548 6.36401 19.7548 6.5443C19.7548 6.78467 19.7307 7.07713 19.6586 7.40966C19.5705 7.8223 19.262 8.11877 18.8173 8.34312C18.4768 8.51539 18.0721 8.60754 17.7917 8.63558C17.7636 8.52741 17.7396 8.38719 17.7436 8.23495C17.7436 7.87839 17.8478 7.46574 18.0401 7.20133V7.19732ZM14.3303 6.74461C14.5346 6.86881 14.791 7.04508 15.0273 7.2454C15.42 7.5659 15.7645 7.97054 15.8526 8.22293C15.9167 8.38719 15.9528 8.61154 15.9528 8.85192C15.9528 9.13637 15.9007 9.44085 15.8206 9.67722C15.8046 9.7293 15.7845 9.77738 15.7645 9.81744C15.7244 9.7934 15.6804 9.76536 15.6363 9.73731C15.3278 9.537 14.9512 9.21249 14.6748 8.87596C14.3903 8.53943 14.2301 8.18287 14.2301 7.99858C14.2301 7.92647 14.2261 7.85836 14.2261 7.79025C14.2261 7.39363 14.2742 7.02906 14.3303 6.74461ZM12.5194 9.33268C12.7037 9.43684 13.0763 9.70126 13.4008 10.0057C13.7894 10.3623 14.146 10.811 14.2421 11.0754C14.2742 11.1636 14.2942 11.2597 14.2942 11.3719C14.3142 11.7004 14.0939 12.1531 13.8815 12.4376C13.8375 12.4095 13.7934 12.3775 13.7453 12.3414C13.4609 12.1331 13.1123 11.7925 12.8559 11.436C12.5915 11.0834 12.4393 10.7068 12.4353 10.5025C12.4313 10.4184 12.4313 10.3383 12.4313 10.2621C12.4313 9.84949 12.4793 9.537 12.5274 9.33668L12.5194 9.33268ZM10.5683 13.2268C10.5844 12.75 10.6885 12.3895 10.7887 12.1571C10.8047 12.113 10.8247 12.077 10.8408 12.0409C11.1372 12.2973 11.4898 12.6419 11.7863 12.9824C12.1068 13.347 12.3552 13.7356 12.3952 13.8999C12.4193 13.976 12.4313 14.0721 12.4313 14.1843C12.4313 14.4687 12.3351 14.8453 12.1829 15.1578C12.1268 15.282 12.0587 15.3942 11.9946 15.4863C11.7662 15.294 11.4417 14.9615 11.1853 14.601C10.8087 14.1002 10.5523 13.4992 10.5683 13.2428V13.2268ZM8.57721 16.0472C8.57721 15.9751 8.57321 15.907 8.57321 15.8389C8.57321 15.4022 8.63731 15.0497 8.6974 14.8093V14.8013C8.94179 14.9455 9.2663 15.1618 9.56677 15.3982C10.0515 15.7628 10.4922 16.2515 10.5523 16.4599C10.5964 16.5721 10.6164 16.6882 10.6164 16.8124C10.6284 17.1249 10.4562 17.4975 10.2759 17.7379C10.0195 17.6177 9.62286 17.3813 9.30636 17.1009C8.85765 16.7283 8.56519 16.2556 8.57721 16.0472ZM13.5971 19.7531C13.525 19.7771 13.4288 19.7931 13.3127 19.7931C12.9521 19.7971 12.4193 19.6248 11.9906 19.3885C11.7742 19.2723 11.5819 19.1441 11.4417 19.0279C11.4337 19.0199 11.4257 19.0119 11.4137 19.0079C11.4898 18.8837 11.598 18.7475 11.7222 18.6353C11.9545 18.427 12.2229 18.2988 12.4954 18.2988C12.4954 18.2988 12.5114 18.2988 12.5234 18.2988C12.7638 18.3028 13.3447 18.5311 13.8415 18.8356C14.0939 18.9838 14.3423 19.1521 14.5466 19.3003C14.3142 19.4446 13.9937 19.6128 13.5971 19.749V19.7531ZM15.5041 17.1129C15.44 17.1409 15.3438 17.161 15.2156 17.161C14.8671 17.169 14.3262 16.9847 13.8815 16.7363C13.6572 16.6161 13.4569 16.4799 13.3046 16.3597C13.2846 16.3437 13.2646 16.3277 13.2486 16.3116C13.3086 16.1995 13.3888 16.0873 13.4889 15.9911C13.6772 15.8069 13.9136 15.6786 14.2181 15.6546C14.2381 15.6546 14.2581 15.6546 14.2862 15.6546C14.5947 15.6466 15.2156 15.8189 15.7405 16.0713C16.0129 16.1915 16.2693 16.3477 16.4656 16.4839C16.2853 16.6642 15.9768 16.9166 15.5081 17.1169L15.5041 17.1129ZM17.371 14.3926C17.3109 14.4127 17.2268 14.4287 17.1226 14.4287C16.7741 14.4367 16.2132 14.2404 15.7605 13.98C15.5321 13.8518 15.3278 13.7076 15.1796 13.5834L15.1636 13.5673C15.2477 13.4712 15.3639 13.367 15.5001 13.2789C15.7926 13.0826 16.1691 12.9464 16.4736 12.9504C16.4736 12.9504 16.4896 12.9504 16.5057 12.9504C16.714 12.9584 17.1948 13.1787 17.6034 13.5112C17.8157 13.6755 18.0201 13.8598 18.1883 14.0321C17.988 14.1482 17.7156 14.2764 17.367 14.3926H17.371ZM19.0497 11.8046C18.9896 11.8246 18.9094 11.8366 18.8133 11.8366C18.4808 11.8446 17.956 11.6523 17.5273 11.3879C17.3189 11.2637 17.1307 11.1235 16.9904 10.9993C17.1106 10.9031 17.2749 10.787 17.4672 10.7028C17.8318 10.5225 18.2845 10.4064 18.5849 10.4064H18.597C18.8614 10.4064 19.246 10.5546 19.5945 10.787C19.7788 10.9072 19.9551 11.0434 20.1073 11.1716C19.875 11.3839 19.5104 11.6563 19.0497 11.8086V11.8046Z" fill="#E59CBD"/>
<path d="M9.63113 26.7802C9.76735 26.9084 9.86751 26.9484 9.98369 26.9965C10.4164 27.1528 10.9412 27.2209 11.7104 27.285C12.4556 27.3451 13.365 27.3771 14.3385 27.3771C15.6326 27.3771 16.9426 27.321 18.1325 27.2169C19.8792 27.0646 21.4938 26.2233 23.0763 24.6488C24.4945 23.2346 25.7244 21.4037 26.8422 19.6329C27.6114 18.403 28.004 16.8085 28.004 14.8895C27.996 11.4921 26.7901 7.74626 25.6603 5.37454C24.7068 3.41946 22.6396 2.09338 19.3424 1.31215C17.2351 0.823386 14.7311 0.583008 11.6784 0.583008H11.6583C9.59107 0.583008 7.84433 0.987644 6.31392 1.82095C4.90371 2.58616 3.58964 3.73196 2.05523 5.52678C0.68107 7.15333 0.00801259 9.49701 0 12.698C0 15.3502 0.480755 17.9743 0.841322 19.7131C1.20589 21.3597 2.47589 22.9662 4.62326 24.4926C5.49263 25.1015 6.4261 25.6183 7.32351 25.9949C8.12477 26.3235 8.79782 26.5117 9.38274 26.5638L9.48691 26.5718L9.53899 26.66C9.56303 26.7041 9.59508 26.7401 9.63113 26.7762V26.7802ZM4.79554 4.32088C5.49664 3.69189 6.1697 3.20312 6.85878 2.83054C8.26098 2.07335 9.74732 1.73281 11.6784 1.72881H11.7184C14.615 1.72881 17.0909 1.96518 19.078 2.42991C21.0931 2.89464 23.6932 3.86817 24.6227 5.87132C25.6563 8.01869 26.8582 11.6684 26.8502 14.8895C26.8502 16.5721 26.5097 18.0024 25.8646 19.024C25.1916 20.0977 24.6347 20.927 24.1139 21.6361L23.9657 21.8404L23.8014 21.6481C20.969 18.3269 17.8721 15.2941 14.5949 12.6339C13.1406 11.4521 11.5982 10.3423 10.1039 9.26866L9.50293 8.83598C7.96452 7.72623 6.20575 6.40015 4.8396 4.65741L4.6433 4.4571L4.79554 4.31687V4.32088ZM7.7642 24.9333C6.51424 24.4165 5.14408 23.5511 4.10645 22.6256C2.93661 21.592 2.15539 20.4462 1.96709 19.4767C1.76277 18.5072 1.1458 15.5545 1.1458 12.698C1.14179 10.7109 1.44627 7.98664 2.9246 6.27595C3.13292 6.03157 3.33724 5.80321 3.54157 5.57886L3.69781 5.40659L3.84604 5.58687C5.61282 7.78232 7.96452 9.45695 10.2401 11.0715C11.2737 11.8046 12.3394 12.5658 13.337 13.3631C16.7824 16.1154 19.9834 19.2283 22.8519 22.6176C22.888 22.6617 22.932 22.6978 22.9801 22.7378L23.1524 22.866L23.0122 23.0303C22.7317 23.3548 22.4913 23.6112 22.263 23.8396C20.8568 25.2377 19.5107 25.9469 18.0283 26.0791C16.8745 26.1792 15.5965 26.2353 14.3345 26.2353C13.2648 26.2353 12.2633 26.1953 11.5101 26.1231C11.1535 26.0871 10.841 26.043 10.6287 25.9989C10.5366 25.9789 10.4644 25.9589 10.4284 25.9469L10.3763 25.9188C10.3763 25.9188 10.3483 25.8988 10.3362 25.8908L10.2802 25.8587L10.2561 25.7986C10.164 25.5783 9.94763 25.4461 9.70725 25.4461C9.24653 25.4461 8.50537 25.2538 7.76821 24.9453L7.7642 24.9333Z" fill="#E59CBD"/>
</g>
<defs>
<clipPath id="clip0_6900_81296">
<rect width="28" height="28" fill="white"/>
</clipPath>
</defs>
</svg>
