<svg width="136" height="28" viewBox="0 0 136 28" fill="none" xmlns="http://www.w3.org/2000/svg">
<g clip-path="url(#clip0_6969_2806)">
<path d="M20.0817 13.6646H19.8985L17.8099 10.5924C16.5402 8.63909 15.5803 7.26792 14.933 6.47885C14.2857 5.69071 13.5588 5.12523 12.7523 4.78429C11.9458 4.44334 10.8219 4.27241 9.38058 4.27241H9.08714V15.5356H9.78431C10.5409 15.5356 11.2074 15.4118 11.7818 15.1651C12.3553 14.9175 12.9661 14.4121 13.6144 13.647C14.2607 12.882 14.9761 11.7464 15.7577 10.2394H15.9773V21.5035H15.7577C14.6089 19.432 13.5952 18.0257 12.7159 17.2838C11.8365 16.5418 10.8593 16.1713 9.78431 16.1713H9.08714V25.2807L10.9936 27.258V27.4696H0.0364406V27.258L1.9419 25.2807L1.97834 5.68424L0 3.84831V3.63672H20.0817V13.6646Z" fill="#F9D7E4"/>
<path d="M25.0911 26.7115C23.6488 25.8522 22.5383 24.6935 21.7558 23.2336C20.9733 21.7747 20.583 20.1855 20.583 18.4669C20.583 15.8779 21.2121 13.8184 22.4702 12.2874C23.7284 10.7573 25.1026 9.69193 26.5928 9.09135C28.0831 8.49077 29.2185 8.19141 30.001 8.19141C31.8825 8.19141 33.5492 8.62105 35.0029 9.48034C36.4558 10.3396 37.5739 11.5048 38.3564 12.9757C39.138 14.4476 39.5293 16.0655 39.5293 17.8312C39.5293 20.3971 38.8992 22.4335 37.642 23.9396C36.3829 25.4466 35.0029 26.4999 33.5012 27.0995C31.9985 27.7001 30.8564 27.9995 30.0748 27.9995C28.1933 27.9995 26.5324 27.5698 25.0911 26.7105V26.7115ZM34.253 24.1511C34.253 22.6922 33.7266 20.4793 32.6775 17.5133C30.796 12.3816 29.0133 9.81575 27.3274 9.81575C26.3253 9.81575 25.8247 10.5808 25.8247 12.1109C25.8247 13.641 26.3253 15.8179 27.3274 18.6434C28.2557 21.2092 29.1772 23.1339 30.094 24.4163C31.0098 25.6997 31.9084 26.341 32.7877 26.341C32.9095 26.341 33.0927 26.3179 33.3372 26.2707C33.9481 26.036 34.254 25.3292 34.254 24.1521L34.253 24.1511Z" fill="#F9D7E4"/>
<path d="M44.4983 26.7115C43.056 25.8522 41.9456 24.6935 41.163 23.2336C40.3805 21.7747 39.9902 20.1855 39.9902 18.4669C39.9902 15.8779 40.6193 13.8184 41.8775 12.2874C43.1356 10.7573 44.5098 9.69193 46.0001 9.09135C47.4903 8.49077 48.6257 8.19141 49.4082 8.19141C51.2897 8.19141 52.9564 8.62105 54.4102 9.48034C55.863 10.3396 56.9812 11.5048 57.7637 12.9757C58.5452 14.4476 58.9365 16.0655 58.9365 17.8312C58.9365 20.3971 58.3064 22.4335 57.0492 23.9396C55.7901 25.4466 54.4102 26.4999 52.9084 27.0995C51.4057 27.7001 50.2636 27.9995 49.4821 27.9995C47.6006 27.9995 45.9396 27.5698 44.4983 26.7105V26.7115ZM53.6603 24.1511C53.6603 22.6922 53.1338 20.4793 52.0847 17.5133C50.2032 12.3816 48.4205 9.81575 46.7346 9.81575C45.7325 9.81575 45.2319 10.5808 45.2319 12.1109C45.2319 13.641 45.7325 15.8179 46.7346 18.6434C47.6629 21.2092 48.5845 23.1339 49.5012 24.4163C50.417 25.6997 51.3156 26.341 52.195 26.341C52.3168 26.341 52.4999 26.3179 52.7445 26.2707C53.3553 26.036 53.6612 25.3292 53.6612 24.1521L53.6603 24.1511Z" fill="#F9D7E4"/>
<path d="M80.0782 22.2095L80.2249 22.386C79.7847 22.9985 79.5402 23.3395 79.4922 23.4097C78.3194 25.0341 77.3605 26.2056 76.6153 26.9227C75.8702 27.6406 75.0455 28 74.1412 28C73.2129 28 72.4928 27.6701 71.9797 27.0114C71.4667 26.3526 71.2461 25.1994 71.3199 23.5511H71.2835V23.5862C70.0618 24.9047 69.0117 25.97 68.1314 26.7822C67.252 27.5944 66.7025 27.988 66.482 27.9649C64.1363 27.6822 62.4016 26.7591 61.2786 25.193C60.1547 23.6278 59.5928 21.6089 59.5928 19.1373C59.5928 16.431 60.1729 14.2883 61.3333 12.7111C62.4927 11.1338 63.8074 10.051 65.2727 9.46238C66.739 8.87381 67.9962 8.57907 69.0472 8.57907C69.7549 8.57907 70.3543 8.62619 70.8424 8.72043V3.56653L68.5706 2.78947V2.57788L77.1092 0.0702218H77.1456L77.3652 0V23.516L80.0772 22.2095H80.0782ZM66.6834 21.7678C67.135 23.2388 67.8984 23.9743 68.9743 23.9743C69.2428 23.9743 69.5535 23.9096 69.9083 23.7802C70.2622 23.6509 70.5739 23.4688 70.8424 23.2332V12.6048C70.6957 11.4988 70.408 10.7042 69.9812 10.221C69.5535 9.73865 69.0702 9.49749 68.5342 9.49749C67.7516 9.49749 67.135 9.92714 66.6834 10.7864C66.2307 11.6457 66.0054 13.1934 66.0054 15.4294C66.0054 18.1837 66.2317 20.2969 66.6834 21.7678Z" fill="#F9D7E4"/>
<path d="M105.334 3.84827L103.942 5.6842L103.978 27.4696H94.8525V27.258L96.8318 25.4221L96.7953 8.7564H96.5748L90.4547 23.2683H90.051L82.8319 9.07425H82.6487V11.4405C82.6487 15.1364 83.2174 18.2437 84.3528 20.7625C85.4892 23.2812 87.2297 25.459 89.5743 27.2949V27.4714H81.8422V7.37968L79.79 3.84919V3.6376L87.7063 3.56738L93.0199 14.3714H93.2031L97.6738 3.6376H105.333V3.84919L105.334 3.84827Z" fill="#F9D7E4"/>
<path d="M123.646 22.4566C120.153 26.1525 117.82 28.0004 116.647 28.0004C114.692 28.0004 112.921 27.6059 111.333 26.8177C109.745 26.0296 108.499 24.9107 107.595 23.4637C106.691 22.0159 106.239 20.3158 106.239 18.3616C106.239 15.8428 106.874 13.8193 108.145 12.2883C109.414 10.7582 110.838 9.68732 112.414 9.07473C113.99 8.46306 115.278 8.15723 116.281 8.15723C118.479 8.15723 120.177 8.74025 121.375 9.90538C122.571 11.0705 123.244 12.5951 123.39 14.4781C123.39 14.7839 122.974 15.1905 122.144 15.6959C121.313 16.2022 120.372 16.6494 119.322 17.0375C118.271 17.4256 117.49 17.6205 116.977 17.6205H112.286C113.043 19.268 114.083 20.6216 115.402 21.6814C116.722 22.7403 118.261 23.2706 120.02 23.2706C120.557 23.2706 121.088 23.1948 121.613 23.0415C122.138 22.889 122.755 22.6358 123.464 22.282L123.647 22.4584L123.646 22.4566ZM111.754 10.5928C111.375 11.1343 111.187 11.9113 111.187 12.9231C111.187 14.1944 111.468 15.5481 112.029 16.9839H116.83C116.805 15.6423 116.629 14.4236 116.299 13.3296C115.969 12.2356 115.53 11.3699 114.979 10.7342C114.43 10.0985 113.825 9.78064 113.165 9.78064C112.603 9.78064 112.132 10.0514 111.754 10.5928Z" fill="#F9D7E4"/>
<path d="M30.0568 19.5739C30.9042 19.5739 31.5911 18.912 31.5911 18.0955C31.5911 17.2791 30.9042 16.6172 30.0568 16.6172C29.2094 16.6172 28.5225 17.2791 28.5225 18.0955C28.5225 18.912 29.2094 19.5739 30.0568 19.5739Z" fill="#F9D7E4"/>
<path d="M49.464 19.5739C50.3114 19.5739 50.9984 18.912 50.9984 18.0955C50.9984 17.2791 50.3114 16.6172 49.464 16.6172C48.6166 16.6172 47.9297 17.2791 47.9297 18.0955C47.9297 18.912 48.6166 19.5739 49.464 19.5739Z" fill="#F9D7E4"/>
<path d="M127.386 14.4268H125.985V10.5323H124.719V9.42676H128.651V10.5323H127.388V14.4268H127.386Z" fill="#F9D7E4"/>
<path d="M131.653 14.4268L130.592 10.8249H130.559C130.569 10.9194 130.578 11.0453 130.59 11.2045C130.6 11.3638 130.611 11.536 130.621 11.7212C130.63 11.9064 130.634 12.0842 130.634 12.2545V14.4268H129.393V9.42676H131.259L132.341 12.9768H132.37L133.431 9.42676H135.301V14.4268H134.013V12.2342C134.013 12.0768 134.017 11.9082 134.023 11.7268C134.028 11.5453 134.036 11.3749 134.044 11.2138C134.051 11.0527 134.059 10.9268 134.067 10.8323H134.034L132.987 14.4268H131.653Z" fill="#F9D7E4"/>
</g>
<defs>
<clipPath id="clip0_6969_2806">
<rect width="136" height="28" fill="white"/>
</clipPath>
</defs>
</svg>
