<svg width="24" height="24" viewBox="0 0 24 24" fill="none" xmlns="http://www.w3.org/2000/svg">
<path d="M12 0C14.6522 0 17.1957 1.05357 19.0711 2.92893C20.9464 4.8043 22 7.34784 22 10C21.9579 11.9205 21.4324 13.7994 20.472 15.463C19.5812 17.0463 18.4902 18.5083 17.226 19.813C15.8094 21.3077 14.2443 22.6543 12.555 23.832C12.3908 23.9414 12.1978 23.9998 12.0005 23.9998C11.8032 23.9998 11.6102 23.9414 11.446 23.832C9.75665 22.6543 8.19158 21.3077 6.775 19.813C5.51076 18.5083 4.41979 17.0463 3.529 15.463C2.56827 13.7995 2.0424 11.9206 2 10C2 7.34784 3.05357 4.8043 4.92893 2.92893C6.8043 1.05357 9.34784 0 12 0ZM12 21.771C13.9 20.364 20 15.414 20 10C20.0001 8.41771 19.5309 6.87093 18.6518 5.55529C17.7728 4.23964 16.5234 3.21421 15.0615 2.60869C13.5997 2.00316 11.9911 1.84474 10.4392 2.15344C8.88731 2.46215 7.46182 3.22412 6.343 4.343C5.59783 5.08418 5.00706 5.9658 4.60488 6.93682C4.20271 7.90784 3.99711 8.94899 4 10C4 15.413 10.1 20.363 12 21.771Z" fill="#F9D7E4"/>
<path d="M12 14C11.2089 14 10.4355 13.7654 9.77772 13.3259C9.11992 12.8864 8.60723 12.2616 8.30448 11.5307C8.00173 10.7998 7.92252 9.99556 8.07686 9.21964C8.2312 8.44372 8.61216 7.73098 9.17157 7.17157C9.73098 6.61216 10.4437 6.2312 11.2196 6.07686C11.9956 5.92252 12.7998 6.00173 13.5307 6.30448C14.2616 6.60723 14.8864 7.11992 15.3259 7.77772C15.7654 8.43552 16 9.20888 16 10C16 11.0609 15.5786 12.0783 14.8284 12.8284C14.0783 13.5786 13.0609 14 12 14ZM12 8C11.6044 8 11.2178 8.1173 10.8889 8.33706C10.56 8.55683 10.3036 8.86918 10.1522 9.23464C10.0009 9.60009 9.96126 10.0022 10.0384 10.3902C10.1156 10.7781 10.3061 11.1345 10.5858 11.4142C10.8655 11.6939 11.2219 11.8844 11.6098 11.9616C11.9978 12.0387 12.3999 11.9991 12.7654 11.8478C13.1308 11.6964 13.4432 11.44 13.6629 11.1111C13.8827 10.7822 14 10.3956 14 10C14 9.46957 13.7893 8.96086 13.4142 8.58579C13.0391 8.21072 12.5304 8 12 8Z" fill="#F9D7E4"/>
</svg>
