<svg width="20" height="20" viewBox="0 0 28 28" fill="none" xmlns="http://www.w3.org/2000/svg">
<g clip-path="url(#clip0_6900_81303)">
<path d="M18.9503 12.4934C18.5336 12.4253 18.0809 12.209 17.6563 11.8524C17.2476 11.4999 16.867 10.971 16.863 10.286C16.863 10.1177 16.8871 9.94544 16.9351 9.77717C16.9792 9.61692 16.9992 9.48071 16.9992 9.36452C16.9872 8.87976 16.7268 8.75957 16.6146 8.75957C16.6146 8.75957 16.5986 8.75957 16.5866 8.75957C16.4544 8.77159 16.1499 8.92784 15.7893 9.12014C15.4248 9.30443 14.9841 9.52077 14.4392 9.52077C13.7301 9.52878 13.0009 9.10011 12.388 8.15863C12.1676 7.83412 12.0635 7.46554 12.0635 7.11299C12.0715 6.31974 12.5322 5.6587 13.0771 5.14189C13.6339 4.62508 14.299 4.24448 14.928 4.07622C15.5129 3.91997 16.0537 3.83984 16.5746 3.83984C17.6963 3.83984 18.6859 4.22445 19.6835 4.90952C20.8733 5.73082 22.2154 7.46955 22.2234 9.71708C22.2315 10.7307 21.7387 11.4919 21.1337 11.9165C20.5248 12.3492 19.8357 12.5095 19.2828 12.5095C19.1666 12.5095 19.0585 12.5015 18.9503 12.4854V12.4934ZM17.6122 8.2027C17.8686 8.49516 18.0248 8.89979 18.0208 9.36452C18.0208 9.58487 17.9888 9.81724 17.9167 10.0576C17.8926 10.1417 17.8846 10.2139 17.8846 10.282C17.8846 10.5544 18.0489 10.8348 18.3253 11.0752C18.5897 11.3116 18.9583 11.4638 19.1025 11.4798C19.1506 11.4879 19.2147 11.4919 19.2868 11.4919C19.6354 11.4919 20.1602 11.3717 20.5448 11.0912C20.9294 10.8028 21.2018 10.4222 21.2098 9.71708C21.2219 7.91425 20.06 6.39185 19.1146 5.75485C18.2091 5.14189 17.468 4.86546 16.5786 4.86145C16.1619 4.86145 15.7092 4.92555 15.1924 5.06176L15.0602 4.56899L15.1924 5.06176C14.7797 5.16993 14.2028 5.48643 13.7782 5.88706C13.3415 6.28769 13.0771 6.76444 13.0891 7.11299C13.0891 7.27324 13.1292 7.41747 13.2413 7.58974C13.7822 8.37497 14.1387 8.48715 14.4432 8.49516C14.6956 8.49516 14.9961 8.37898 15.3286 8.20671C15.6651 8.04245 15.9977 7.8221 16.4424 7.74598C16.5025 7.73797 16.5625 7.73396 16.6226 7.72996C17.0032 7.72996 17.3598 7.90623 17.6162 8.19469L17.6122 8.2027Z" fill="#E59CBD"/>
<path d="M16.1294 23.286C15.7448 23.286 15.3321 23.242 14.8874 23.1458C13.8939 22.9295 13.1968 22.4688 12.7721 21.9039C12.3475 21.339 12.1992 20.702 12.1992 20.1571C12.1992 19.7124 12.2874 19.3318 12.4316 19.0273C12.5918 18.6988 12.8683 18.3823 13.2409 18.1019C13.6134 17.8295 14.0822 17.6011 14.631 17.5971C14.9596 17.5971 15.3081 17.6892 15.6206 17.8936C15.7849 18.0017 15.909 18.0258 16.0092 18.0258C16.1655 18.0258 16.3177 17.9537 16.4539 17.8174C16.5901 17.6892 16.6783 17.4929 16.6823 17.4208C16.6863 17.3888 16.6903 17.3527 16.6903 17.3046C16.6983 17.0122 16.5581 16.4874 16.5501 15.9145C16.5501 15.4978 16.6462 14.993 17.0348 14.6084C17.4234 14.2238 18.0003 14.0155 18.8016 13.9514C18.8617 13.9474 18.9218 13.9434 18.9819 13.9434C19.9234 13.9434 20.6245 14.5443 21.0331 15.2374C21.4498 15.9385 21.6501 16.7678 21.6541 17.501C21.6541 17.549 21.6541 17.5931 21.6541 17.6412C21.618 18.5867 21.4337 19.3879 21.0652 20.093C20.6966 20.7981 20.1557 21.3871 19.4626 21.9439C18.6494 22.601 17.6157 23.282 16.1414 23.282H16.1294V23.286ZM13.8458 18.9232C13.5974 19.1035 13.4011 19.3519 13.353 19.464C13.2889 19.5922 13.2208 19.8607 13.2208 20.1531C13.2208 20.5217 13.317 20.9343 13.5854 21.2829C13.8538 21.6354 14.2985 21.964 15.1078 22.1442C15.4844 22.2284 15.8249 22.2644 16.1294 22.2644C17.2872 22.2644 18.0404 21.7717 18.8256 21.1507C19.4506 20.6499 19.8753 20.1731 20.1597 19.6243C20.4442 19.0754 20.6004 18.4464 20.6325 17.6051C20.6325 17.5731 20.6325 17.537 20.6325 17.505C20.6325 16.9681 20.4642 16.271 20.1597 15.7702C19.8432 15.2574 19.4626 14.973 18.9819 14.973C18.9498 14.973 18.9178 14.973 18.8817 14.977C18.2047 15.0291 17.8882 15.1973 17.7519 15.3376C17.6197 15.4738 17.5677 15.638 17.5636 15.9225C17.5596 16.3111 17.6959 16.8039 17.7039 17.3127C17.7039 17.3968 17.6999 17.4849 17.6838 17.5771C17.6237 17.9336 17.4435 18.2621 17.167 18.5466C16.8906 18.823 16.486 19.0554 15.9972 19.0554C15.6847 19.0554 15.3562 18.9552 15.0517 18.7549C14.8995 18.6588 14.7673 18.6267 14.623 18.6227H14.615C14.3746 18.6227 14.0862 18.7429 13.8418 18.9272L13.8458 18.9232Z" fill="#E59CBD"/>
<path d="M7.68419 19.0955C7.52795 19.0955 7.35968 19.0875 7.18341 19.0675C6.41019 18.9874 5.80925 18.5707 5.48474 18.0299C5.15222 17.489 5.04405 16.86 5.04004 16.2551C5.04004 15.9266 5.07209 15.606 5.13218 15.3016C5.48073 13.3986 6.6065 12.0324 8.16094 11.135C8.80996 10.7584 9.71939 10.5381 10.721 10.5381C11.5823 10.5381 12.5118 10.7104 13.3691 11.143C13.4733 11.1951 13.5494 11.2793 13.5975 11.3754C13.7097 11.3754 13.8258 11.4075 13.922 11.4836C14.6391 12.0284 14.9035 12.7936 14.8915 13.4467C14.8915 14.1037 14.6712 14.6726 14.4909 15.0532C14.3106 15.4178 14.0141 15.7302 13.6456 15.9786C13.277 16.223 12.8323 16.3993 12.3435 16.3993C11.9349 16.3993 11.4902 16.2591 11.1336 15.9386C10.8452 15.6822 10.6008 15.6141 10.4325 15.6141C10.1961 15.6141 10.088 15.7383 10.0679 15.8144C10.0038 15.9987 9.99583 16.5035 9.93173 17.0323C9.86362 17.5611 9.71138 18.1981 9.16252 18.6468C8.79794 18.9393 8.30116 19.0955 7.69621 19.0955H7.68419ZM8.67375 12.0164C7.3076 12.8217 6.44224 13.8793 6.13376 15.4899C6.08568 15.7343 6.06164 15.9987 6.06164 16.2551C6.06164 16.7318 6.1578 17.1845 6.3501 17.489C6.55041 17.7935 6.7988 17.9858 7.29558 18.0499C7.43981 18.0659 7.56801 18.0739 7.68419 18.0739C8.36927 18.0539 8.54955 17.8776 8.71381 17.6292C8.87406 17.3648 8.93416 16.9121 8.96621 16.4434C8.99025 16.1309 9.00227 15.8224 9.09441 15.5139C9.27069 14.953 9.81955 14.5885 10.4365 14.5925C10.8892 14.5925 11.378 14.7808 11.8147 15.1734C11.991 15.3256 12.1512 15.3737 12.3475 15.3777C12.5759 15.3777 12.8483 15.2855 13.0847 15.1253C13.3211 14.9731 13.5053 14.7567 13.5775 14.6045C13.7217 14.312 13.8779 13.8633 13.8779 13.4426C13.8699 13.018 13.7577 12.6494 13.301 12.2848C13.2369 12.2368 13.1888 12.1727 13.1528 12.1045C13.0727 12.1045 12.9885 12.0885 12.9084 12.0485C12.2233 11.6999 11.4501 11.5517 10.725 11.5517H10.7089C9.87564 11.5517 9.10643 11.76 8.68176 12.0124L8.67375 12.0164Z" fill="#E59CBD"/>
<path d="M9.63113 26.7802C9.76735 26.9084 9.86751 26.9484 9.98369 26.9965C10.4164 27.1528 10.9412 27.2209 11.7104 27.285C12.4556 27.3451 13.365 27.3771 14.3385 27.3771C15.6326 27.3771 16.9426 27.321 18.1325 27.2169C19.8792 27.0646 21.4938 26.2233 23.0763 24.6488C24.4945 23.2346 25.7244 21.4037 26.8422 19.6329C27.6114 18.403 28.004 16.8085 28.004 14.8895C27.996 11.4921 26.7901 7.74626 25.6603 5.37454C24.7068 3.41946 22.6396 2.09338 19.3424 1.31215C17.2351 0.823386 14.7311 0.583008 11.6784 0.583008H11.6583C9.59107 0.583008 7.84433 0.987644 6.31392 1.82095C4.90371 2.58616 3.58964 3.73196 2.05523 5.52678C0.68107 7.15333 0.00801259 9.49701 0 12.698C0 15.3502 0.480755 17.9743 0.841322 19.7131C1.20589 21.3597 2.47589 22.9662 4.62326 24.4926C5.49263 25.1015 6.4261 25.6183 7.32351 25.9949C8.12477 26.3235 8.79782 26.5117 9.38274 26.5638L9.48691 26.5718L9.53899 26.66C9.56303 26.7041 9.59508 26.7401 9.63113 26.7762V26.7802ZM4.79554 4.32088C5.49664 3.69189 6.1697 3.20312 6.85878 2.83054C8.26098 2.07335 9.74732 1.73281 11.6784 1.72881H11.7184C14.615 1.72881 17.0909 1.96518 19.078 2.42991C21.0931 2.89464 23.6932 3.86817 24.6227 5.87132C25.6563 8.01869 26.8582 11.6684 26.8502 14.8895C26.8502 16.5721 26.5097 18.0024 25.8646 19.024C25.1916 20.0977 24.6347 20.927 24.1139 21.6361L23.9657 21.8404L23.8014 21.6481C20.969 18.3269 17.8721 15.2941 14.5949 12.6339C13.1406 11.4521 11.5982 10.3423 10.1039 9.26866L9.50293 8.83598C7.96452 7.72623 6.20575 6.40015 4.8396 4.65741L4.6433 4.4571L4.79554 4.31687V4.32088ZM7.7642 24.9333C6.51424 24.4165 5.14408 23.5511 4.10645 22.6256C2.93661 21.592 2.15539 20.4462 1.96709 19.4767C1.76277 18.5072 1.1458 15.5545 1.1458 12.698C1.14179 10.7109 1.44627 7.98664 2.9246 6.27595C3.13292 6.03157 3.33724 5.80321 3.54157 5.57886L3.69781 5.40659L3.84604 5.58687C5.61282 7.78232 7.96452 9.45695 10.2401 11.0715C11.2737 11.8046 12.3394 12.5658 13.337 13.3631C16.7824 16.1154 19.9834 19.2283 22.8519 22.6176C22.888 22.6617 22.932 22.6978 22.9801 22.7378L23.1524 22.866L23.0122 23.0303C22.7317 23.3548 22.4913 23.6112 22.263 23.8396C20.8568 25.2377 19.5107 25.9469 18.0283 26.0791C16.8745 26.1792 15.5965 26.2353 14.3345 26.2353C13.2648 26.2353 12.2633 26.1953 11.5101 26.1231C11.1535 26.0871 10.841 26.043 10.6287 25.9989C10.5366 25.9789 10.4644 25.9589 10.4284 25.9469L10.3763 25.9188C10.3763 25.9188 10.3483 25.8988 10.3362 25.8908L10.2802 25.8587L10.2561 25.7986C10.164 25.5783 9.94763 25.4461 9.70725 25.4461C9.24653 25.4461 8.50537 25.2538 7.76821 24.9453L7.7642 24.9333Z" fill="#E59CBD"/>
</g>
<defs>
<clipPath id="clip0_6900_81303">
<rect width="28" height="28" fill="white"/>
</clipPath>
</defs>
</svg>
