<svg width="12" height="13" viewBox="0 0 12 13" fill="none" xmlns="http://www.w3.org/2000/svg">
<path fill-rule="evenodd" clip-rule="evenodd" d="M9 2C8.44772 2 8 2.44772 8 3C8 3.17365 8.04426 3.33697 8.12212 3.47928C8.12721 3.487 8.13212 3.4949 8.13684 3.50299C8.14153 3.51101 8.14596 3.51912 8.15015 3.52729C8.3266 3.81108 8.64124 4 9 4C9.55228 4 10 3.55228 10 3C10 2.44772 9.55228 2 9 2ZM7.57903 4.40743C7.94148 4.77334 8.44427 5 9 5C10.1046 5 11 4.10457 11 3C11 1.89543 10.1046 1 9 1C7.89543 1 7 1.89543 7 3C7 3.18851 7.02608 3.37093 7.07483 3.54384L4.42097 5.09257C4.05852 4.72666 3.55573 4.5 3 4.5C1.89543 4.5 1 5.39543 1 6.5C1 7.60457 1.89543 8.5 3 8.5C3.55583 8.5 4.05871 8.27326 4.42117 7.90722L7.07546 9.45394C7.0263 9.62751 7 9.81068 7 10C7 11.1046 7.89543 12 9 12C10.1046 12 11 11.1046 11 10C11 8.89543 10.1046 8 9 8C8.4451 8 7.94299 8.22598 7.58066 8.59093L4.92525 7.04356C4.97395 6.87073 5 6.68841 5 6.5C5 6.31149 4.97392 6.12907 4.92517 5.95616L7.57903 4.40743ZM3.84985 5.97272C3.85404 5.98089 3.85847 5.98899 3.86316 5.99701C3.86787 6.0051 3.87278 6.013 3.87788 6.02072C3.95574 6.16303 4 6.32635 4 6.5C4 6.67365 3.95574 6.83696 3.87788 6.97927C3.87273 6.98708 3.86776 6.99508 3.863 7.00326C3.85837 7.0112 3.85399 7.01921 3.84985 7.02728C3.6734 7.31107 3.35876 7.5 3 7.5C2.44772 7.5 2 7.05228 2 6.5C2 5.94772 2.44772 5.5 3 5.5C3.35876 5.5 3.6734 5.68893 3.84985 5.97272ZM8.10763 9.54822C8.11998 9.53198 8.13147 9.51481 8.142 9.49674C8.1521 9.47941 8.16104 9.46173 8.16884 9.44377C8.3483 9.17615 8.65358 9 9 9C9.55228 9 10 9.44772 10 10C10 10.5523 9.55228 11 9 11C8.44772 11 8 10.5523 8 10C8 9.83743 8.03879 9.68392 8.10763 9.54822Z" fill="#E59CBD"/>
</svg>
