<svg width="37" height="33" viewBox="0 0 37 33" fill="none" xmlns="http://www.w3.org/2000/svg">
<rect x="0.0957031" width="47.9036" height="32.4508" rx="16.2254" fill="#E59CBD"/>
<g clip-path="url(#clip0_6901_82935)">
<path d="M18.9701 19.2264C18.9701 19.7219 18.9418 20.2192 18.9768 20.7121C19.0277 21.4265 19.4005 21.9701 19.9965 22.3581C20.1266 22.4427 20.1778 22.5311 20.1861 22.6871C20.2271 23.4598 20.2831 24.232 20.3353 25.0041C20.3575 25.335 20.3789 25.6659 20.4078 25.9965C20.4199 26.1356 20.3665 26.1841 20.23 26.1873C19.6801 26.2013 19.1301 26.2225 18.5802 26.2409C18.2627 26.2513 17.9456 26.2672 17.6282 26.2704C17.2818 26.2738 17.0646 26.0697 17.0258 25.728C16.9443 25.0069 16.854 24.2865 16.7786 23.5647C16.7335 23.1305 16.7026 22.6944 16.6788 22.2582C16.6225 21.2271 16.5652 20.196 16.5261 19.164C16.5048 18.5947 16.5197 18.0245 16.5181 17.4546C16.5175 17.1659 16.4024 17.0556 16.1091 17.0251C15.5528 16.9678 14.9968 16.9047 14.4418 16.8337C14.1313 16.7937 13.9122 16.4387 14.0382 16.1364C14.1504 15.8663 14.3142 15.6156 14.4717 15.3668C15.9164 13.0865 17.6349 11.0354 19.6406 9.22462C20.8127 8.16659 22.0595 7.20904 23.4081 6.38176C23.8534 6.10854 24.2797 6.12058 24.7065 6.3843C25.6613 6.97449 26.5717 7.62807 27.4403 8.33839C27.4689 8.36184 27.4944 8.39481 27.5271 8.40622C27.593 8.42935 27.682 8.47405 27.7266 8.44869C27.7806 8.41794 27.8252 8.32539 27.8277 8.25756C27.8388 7.9837 27.8309 7.70889 27.8331 7.4344C27.8363 7.03534 28.1235 6.79857 28.5198 6.84104C28.9607 6.88827 29.4041 6.91458 29.8462 6.95166C29.962 6.96149 30.0787 6.96941 30.1922 6.99065C30.4731 7.04358 30.641 7.22204 30.6976 7.49399C30.7797 7.8902 30.8605 8.28767 30.919 8.688C31.0227 9.39546 31.113 10.1051 31.2005 10.8148C31.2358 11.1017 31.2508 11.3911 31.2714 11.6798C31.2956 12.0199 31.4442 12.3055 31.6522 12.5664C32.4906 13.6162 33.2597 14.7138 33.9518 15.8644C34.0431 16.0162 34.1159 16.1738 34.0841 16.3554C34.0275 16.6812 33.8643 16.8315 33.5345 16.866C33.0043 16.9215 32.4737 16.9738 31.9435 17.0286C31.7139 17.0524 31.5936 17.1839 31.5917 17.4172C31.5895 17.7126 31.5965 18.0083 31.5901 18.3038C31.5704 19.2211 31.5653 20.139 31.5183 21.055C31.4712 21.9641 31.3891 22.8715 31.3052 23.7781C31.2454 24.4218 31.1566 25.063 31.0812 25.7052C31.0415 26.045 30.7959 26.2764 30.4508 26.2694C29.8427 26.2574 29.2345 26.2301 28.6267 26.2111C28.4995 26.207 28.4604 26.1337 28.4712 26.0228C28.5303 25.4209 28.5946 24.8196 28.6499 24.2174C28.6811 23.8766 28.7043 23.5349 28.7212 23.1933C28.774 22.1251 28.8258 21.0569 28.87 19.9881C28.8862 19.5982 28.8815 19.2074 28.8824 18.8169C28.884 18.2106 28.8948 17.6036 28.8799 16.9975C28.8573 16.0704 28.8185 15.1436 28.781 14.2168C28.7711 13.9753 28.7476 13.7338 28.7199 13.4932C28.6906 13.239 28.5666 13.0459 28.3159 12.9553C28.0539 12.8608 27.8264 12.9467 27.6566 13.1407C27.4696 13.3544 27.3007 13.587 27.147 13.8263C26.2084 15.2863 25.6057 16.8765 25.2914 18.5802C25.107 19.5799 25.0507 20.5869 25.0767 21.6002C25.0809 21.7634 25.091 21.9267 25.1098 22.089C25.1477 22.4173 25.3544 22.6113 25.6919 22.6563C26.0529 22.7045 26.4123 22.7625 26.7733 22.8088C26.8964 22.8246 26.9358 22.8839 26.9266 22.999C26.8716 23.6969 26.8201 24.3949 26.7635 25.0925C26.7386 25.3965 26.7027 25.6995 26.676 26.0035C26.6642 26.136 26.5984 26.1791 26.4673 26.1781C25.1171 26.1664 23.7669 26.1578 22.4167 26.1528C22.266 26.1521 22.2157 26.0922 22.2055 25.9471C22.1597 25.2855 22.0996 24.625 22.0544 23.9635C22.0233 23.5064 22.0099 23.0478 21.9848 22.5904C21.9781 22.4706 22.0293 22.3964 22.126 22.3298C22.8003 21.8661 23.1238 21.2179 23.1273 20.4075C23.1305 19.616 23.1209 18.8242 23.1321 18.0328C23.1441 17.1576 23.167 16.2825 23.1973 15.4077C23.2119 14.987 23.2529 14.5674 23.2844 14.1474C23.306 13.8571 23.1553 13.6612 22.9113 13.6697C22.7268 13.6761 22.5796 13.8111 22.5634 13.9943C22.542 14.2355 22.5195 14.4767 22.5067 14.7186C22.4797 15.2447 22.4539 15.7712 22.4361 16.2977C22.411 17.0302 22.396 17.7627 22.3716 18.4952C22.3611 18.8119 22.1702 19.0001 21.8789 18.9982C21.5878 18.9963 21.4046 18.8207 21.4088 18.5C21.4199 17.6302 21.4418 16.7605 21.4686 15.8907C21.4835 15.401 21.5185 14.9122 21.5401 14.4225C21.5471 14.2612 21.5618 14.0957 21.5357 13.9382C21.5035 13.7426 21.3738 13.6599 21.1855 13.6697C21.0118 13.6789 20.8754 13.794 20.8509 13.9721C20.8229 14.1753 20.8028 14.3801 20.7911 14.5848C20.7634 15.0634 20.736 15.5424 20.7211 16.0213C20.695 16.854 20.6794 17.6869 20.6578 18.5196C20.6502 18.8131 20.4469 19.0198 20.1721 19.0191C19.9005 19.0185 19.6972 18.8226 19.696 18.531C19.6941 18.0882 19.7068 17.6451 19.7179 17.2023C19.7281 16.7912 19.7402 16.3801 19.7593 15.9693C19.7866 15.3801 19.8222 14.7912 19.8502 14.2019C19.854 14.1192 19.847 14.0327 19.8261 13.9528C19.7742 13.7553 19.6336 13.6567 19.4437 13.6704C19.2796 13.6824 19.1543 13.806 19.133 13.9965C19.1066 14.2317 19.0869 14.4682 19.0725 14.7046C19.0481 15.1094 19.0261 15.5148 19.0105 15.9199C18.9933 16.3677 18.9781 16.8156 18.9739 17.2638C18.9679 17.9177 18.9724 18.5716 18.9724 19.2258C18.9717 19.2258 18.9714 19.2258 18.9708 19.2258L18.9701 19.2264Z" fill="white"/>
</g>
<defs>
<clipPath id="clip0_6901_82935">
<rect width="20.0886" height="20.0886" fill="white" transform="translate(14.0029 6.18164)"/>
</clipPath>
</defs>
</svg>
