<svg width="49" height="33" viewBox="0 0 49 33" fill="none" xmlns="http://www.w3.org/2000/svg">
<rect x="0.0478516" width="48.3391" height="32.7458" rx="16.3729" fill="#E59CBD"/>
<g clip-path="url(#clip0_6900_82300)">
<path d="M23.5054 22.5693C23.5158 21.5881 22.7292 20.7841 21.7481 20.7737C20.7669 20.7633 19.9629 21.5499 19.9525 22.5311C19.9421 23.5122 20.7287 24.3162 21.7099 24.3267C21.7162 24.3267 21.7226 24.3267 21.729 24.3267C22.6968 24.34 23.4921 23.5666 23.5054 22.5988C23.5054 22.589 23.5054 22.5791 23.5054 22.5693ZM24.9566 19.6942V25.445H23.4782V24.924C22.9515 25.3581 22.2893 25.5937 21.6068 25.5897C19.857 25.5897 18.4874 24.2456 18.4874 22.5675C18.4874 20.8895 19.857 19.546 21.6068 19.546C22.2893 19.5419 22.9515 19.7775 23.4782 20.2117V19.6907L24.9566 19.6942ZM29.871 24.1403H28.7613C28.4227 24.1403 28.2056 23.9944 28.2056 23.6882V20.9989H29.8733V19.6942H28.2033V18.0543H26.7116V19.6919H25.5858V20.9966H26.7116V24.0581C26.7116 24.8302 27.2679 25.4427 28.271 25.4427H29.871V24.1403ZM33.241 25.5914C34.9497 25.5914 35.9123 24.7926 35.9123 23.6882C35.9123 22.9021 35.3428 22.3163 34.1492 22.0634L32.8885 21.8104C32.1562 21.6779 31.9253 21.5447 31.9253 21.2785C31.9253 20.9312 32.2784 20.7193 32.929 20.7193C33.634 20.7193 34.1492 20.9057 34.2985 21.5447H35.7769C35.6953 20.3465 34.8137 19.5477 33.0239 19.5477C31.4778 19.5477 30.3931 20.1735 30.3931 21.385C30.3931 22.2231 30.9899 22.7696 32.2784 23.0353L33.6884 23.3548C34.2447 23.4613 34.3934 23.6077 34.3934 23.8346C34.3934 24.1935 33.9732 24.4198 33.2936 24.4198C32.4399 24.4198 31.9513 24.2335 31.7615 23.5944H30.2709C30.488 24.7926 31.3968 25.5914 33.241 25.5914ZM12.5225 17.6572H18.0961V18.9886H14.0275V20.8906H17.9873V22.182H14.0275V24.1119H18.0961V25.4432H12.5225V17.6572Z" fill="white"/>
<path d="M35.7769 10.9116V9.86624H35.3804C34.7436 9.86624 34.2806 10.1557 33.9975 10.6118V9.91081H32.8641V15.5835H34.0091V12.3582C34.0091 11.4795 34.5526 10.911 35.3011 10.911H35.7769V10.9116ZM27.5492 12.225C27.7535 11.3568 28.4673 10.7779 29.3176 10.7779C30.1679 10.7779 30.8805 11.3568 31.0738 12.225H27.5492ZM29.3402 9.79967C27.7136 9.78636 26.384 11.094 26.3707 12.7205C26.3707 12.7298 26.3707 12.739 26.3707 12.7483C26.3707 14.4391 27.7078 15.7073 29.442 15.7073C30.4961 15.7073 31.3568 15.2512 31.9351 14.4947L31.1079 13.8938C30.6773 14.4611 30.1106 14.7285 29.442 14.7285C28.4939 14.7355 27.6812 14.0513 27.5266 13.1153H32.2297V12.7483C32.2297 11.0569 31.0061 9.79967 29.3402 9.79967ZM22.7992 14.7285C21.7122 14.7204 20.8381 13.8325 20.8462 12.7454C20.8543 11.6583 21.7423 10.7843 22.8293 10.7924C23.9106 10.8005 24.7823 11.6792 24.7823 12.7605C24.7789 13.851 23.8921 14.732 22.8015 14.7285C22.801 14.7285 22.7998 14.7285 22.7992 14.7285ZM19.6827 15.5846H20.8161V14.8715C21.3643 15.4156 22.1064 15.7201 22.8785 15.7172C24.5786 15.7172 25.9157 14.3934 25.9157 12.7581C25.9157 11.1229 24.5786 9.78751 22.8785 9.78751C22.1104 9.78578 21.3735 10.0908 20.8312 10.6344V7.79745H19.6845L19.6827 15.584V15.5846ZM15.6598 14.6724C16.7596 14.6724 17.6088 13.8383 17.6088 12.603V7.79803H18.7989V15.584H17.6221V14.8611C17.0895 15.4063 16.3527 15.7178 15.5255 15.7178C13.8254 15.7178 12.5225 14.5051 12.5225 12.6696V7.79688H13.7114V12.6013C13.7114 13.8591 14.5496 14.6706 15.6604 14.6706" fill="white"/>
</g>
<defs>
<clipPath id="clip0_6900_82300">
<rect width="23.3899" height="17.7948" fill="white" transform="translate(12.5225 7.79688)"/>
</clipPath>
</defs>
</svg>
