<svg width="49" height="33" viewBox="0 0 49 33" fill="none" xmlns="http://www.w3.org/2000/svg">
<rect width="48.3391" height="32.7458" rx="16.3729" fill="#E59CBD"/>
<g clip-path="url(#clip0_6900_82295)">
<path d="M14.8122 17.7905C17.212 17.2766 19.5836 16.7685 22.0104 16.2486C21.4795 13.731 20.9525 11.2319 20.4203 8.70768C22.0959 8.34916 23.751 7.99526 25.4476 7.63211C25.964 10.069 26.4752 12.4801 26.9857 14.8912C27.0054 14.8879 27.0251 14.8846 27.0449 14.8813C27.2468 12.9432 27.4494 11.005 27.6507 9.06687C27.7409 8.20164 27.8323 7.33642 27.9172 6.47054C27.9323 6.31773 27.9639 6.2205 28.15 6.241C29.7703 6.4196 31.3906 6.59357 33.055 6.7735C32.9977 7.36685 32.9458 7.943 32.8859 8.51916C32.6978 10.3151 32.5063 12.1104 32.3175 13.9063C32.1254 15.7241 31.9195 17.5405 31.7531 19.3602C31.7077 19.8577 31.5518 20.2976 31.3544 20.7414C30.5407 22.5698 29.7295 24.3994 28.9329 26.2351C28.8178 26.501 28.6967 26.5453 28.4198 26.4858C24.3983 25.6133 20.3736 24.7533 16.3483 23.8994C16.1575 23.859 16.0693 23.7882 16.0292 23.5977C15.6319 21.6807 15.2266 19.7657 14.8115 17.7912L14.8122 17.7905ZM22.5768 18.581C22.5781 19.1168 22.8925 19.4052 23.4649 19.3946C23.899 19.3867 24.2273 19.0361 24.2312 18.5757C24.2352 18.1398 23.8589 17.768 23.4135 17.7667C22.8485 17.7654 22.5754 18.0313 22.5768 18.581V18.581ZM26.9311 18.239C26.5153 18.2364 26.1607 18.6485 26.1561 19.1393C26.1515 19.6143 26.4739 19.9013 27.0218 19.9119C27.4843 19.9205 27.7948 19.5732 27.8001 19.0401C27.804 18.6028 27.4119 18.241 26.9304 18.2384L26.9311 18.239Z" fill="white"/>
</g>
<defs>
<clipPath id="clip0_6900_82295">
<rect width="18.2441" height="20.2712" fill="white" transform="translate(14.8135 6.2373)"/>
</clipPath>
</defs>
</svg>
