<svg width="20" height="20" viewBox="0 0 18 28" fill="none" xmlns="http://www.w3.org/2000/svg">
<path d="M16.2117 15.2624C14.9298 12.803 14.5859 11.4914 14.5179 10.6956C14.4931 10.3717 14.502 10.0459 14.5447 9.72225C14.6442 9.70916 14.7401 9.67823 14.8265 9.63135C14.9085 9.58428 14.979 9.5229 15.0336 9.45104C15.0883 9.37918 15.1259 9.29838 15.1441 9.21369C15.2425 8.7945 15.2741 8.36628 15.238 7.94168C15.1041 7.04985 14.7932 6.18932 14.3198 5.3998C14.0841 4.9381 13.7214 4.53824 13.2646 4.23636C12.7795 3.89382 12.1766 3.70678 11.5509 3.7047C11.451 3.38515 11.3955 3.05515 11.3858 2.72203L11.3422 2.21195C11.3261 1.97156 11.296 1.73232 11.2519 1.4952C11.2117 1.23142 11.0946 0.982895 10.9122 0.774098C10.7562 0.624462 10.5419 0.532902 10.311 0.517233C10.1786 0.502906 10.0444 0.502311 9.9112 0.515463C9.43505 0.575142 8.9646 0.670382 8.50489 0.800166C8.33997 0.848546 8.19935 0.948371 8.10938 1.08092C8.01942 1.21348 7.98629 1.36966 8.01622 1.52019C7.95043 1.60144 7.90684 1.69495 7.88897 1.79312L7.48541 3.8469C6.64984 4.0592 5.91067 4.50886 5.38223 5.12634C4.72259 5.87435 4.2619 6.74345 4.03563 7.6667C3.82329 8.39547 3.73328 9.14601 3.76853 9.89379C3.77612 9.98585 3.80702 10.0748 3.85892 10.154C3.91082 10.2331 3.98239 10.3005 4.0683 10.3511C4.19985 10.4329 4.36155 10.4684 4.52284 10.451C4.50317 10.6274 4.47375 10.8251 4.44119 11.054C4.34127 11.7819 4.18702 12.8227 3.98677 13.8674C3.84965 14.6344 3.01998 16.1081 2.26404 17.6988C1.5081 19.2894 0.765604 21.105 0.912629 22.824C0.970476 23.6019 1.25574 24.3488 1.74031 24.9912C2.22488 25.6336 2.89204 26.1493 3.67606 26.4875C5.51586 27.3214 7.59835 27.6607 9.67344 27.4645C11.7765 27.3296 13.782 26.5718 15.3684 25.3127C16.2041 24.5896 16.8425 23.7067 17.2329 22.7341C17.6233 21.7615 17.7549 20.726 17.6173 19.7099C17.4472 18.1604 16.9714 16.655 16.2117 15.2624ZM5.43156 7.9378C5.60798 7.2067 5.96441 6.5163 6.47504 5.91663C6.82173 5.46476 7.35288 5.14962 7.95237 5.04011L8.02138 5.0342C8.19714 5.05521 8.37659 5.01404 8.52128 4.91951C8.67353 4.82056 8.77737 4.67336 8.81056 4.50941L9.29429 1.97093C9.29493 1.94524 9.29273 1.91962 9.28775 1.89442L9.32225 1.89146C9.50051 1.87622 9.7089 1.80701 9.89203 1.78107C9.90468 1.929 9.92213 2.13303 9.94133 2.35746L9.98495 2.86754C10.0067 3.28075 10.0786 3.68976 10.1993 4.08748C10.2768 4.30923 10.4089 4.512 10.5861 4.68125C10.7029 4.7834 10.8437 4.86153 10.9988 4.91032C11.1539 4.95912 11.3197 4.97744 11.4849 4.96404C11.8214 4.95228 12.1481 5.05262 12.4009 5.24536C12.6695 5.41434 12.8873 5.63884 13.0362 5.90008C13.4505 6.56724 13.7267 7.29691 13.8518 8.05511C13.8518 8.05511 13.8558 8.10102 13.8579 8.12652C13.7695 8.13609 13.6833 8.1591 13.6031 8.19456C13.351 8.11462 13.105 8.02069 12.8666 7.9133C12.3715 7.73706 11.9474 7.43603 11.6456 7.04663C11.5915 6.95763 11.514 6.88184 11.4195 6.82558C11.325 6.76931 11.2163 6.73419 11.1025 6.72315L10.9702 6.73446C10.7828 6.75098 10.6087 6.83232 10.4857 6.96088C10.0659 7.40269 9.67883 7.82115 9.2452 8.37205C9.16442 8.24023 9.08982 8.11302 9.01035 7.9965C8.75076 7.60252 8.51766 7.24738 8.49474 7.18254C8.44954 7.0831 8.37588 6.99629 8.28093 6.93057C8.18598 6.86486 8.07298 6.82247 7.95295 6.80756C7.83398 6.79013 7.71128 6.80131 7.59751 6.83994C7.48373 6.87858 7.38298 6.94327 7.30565 7.02734C6.95816 7.41984 6.58604 7.79477 6.19113 8.15029C5.89702 8.40997 5.5756 8.64397 5.23147 8.84894C5.27867 8.54244 5.34548 8.23823 5.43156 7.9378ZM14.4283 24.4117C13.0723 25.4813 11.3612 26.1233 9.56829 26.2352C7.76969 26.4056 5.96427 26.1161 4.36507 25.4009C3.78087 25.1629 3.28258 24.7884 2.92229 24.3167C2.562 23.8449 2.35294 23.2933 2.31696 22.7193C2.20397 21.3982 2.81536 19.7428 3.5633 18.1939C4.31123 16.6451 5.14307 15.1969 5.37572 14.0569C5.77055 11.9011 6.01389 9.93809 6.01877 9.9274C6.01931 9.90001 6.01697 9.87268 6.01179 9.84578C6.42136 9.59851 6.80461 9.31801 7.15649 9.00799C7.36147 8.83118 7.54876 8.65074 7.69136 8.48954C7.71351 8.52801 7.73798 8.56536 7.76465 8.60145C8.03232 8.99484 8.26146 9.40839 8.4496 9.83766C8.49578 9.95141 8.57832 10.0502 8.68726 10.122C8.79619 10.1938 8.92684 10.2357 9.06344 10.2424L9.19569 10.2311C9.30695 10.2226 9.41496 10.1911 9.51109 10.1392C9.60722 10.0873 9.6888 10.0163 9.74932 9.93202C10.1413 9.36057 10.5699 8.80923 11.033 8.2808C11.3838 8.5681 11.7808 8.80761 12.2117 8.9918C12.5307 9.13739 12.8608 9.26365 13.1997 9.36972C13.2058 9.44113 13.1832 9.515 13.1786 9.5976C13.1259 9.99141 13.1152 10.388 13.1467 10.7821C13.234 11.8022 13.6512 13.2258 14.963 15.7648C15.6525 17.0257 16.0865 18.3883 16.2458 19.7913C16.3813 21.9171 15.6365 23.3681 14.4111 24.4132L14.4283 24.4117Z" fill="#E59CBD"/>
</svg>
