<svg width="20" height="20" viewBox="0 0 28 28" fill="none" xmlns="http://www.w3.org/2000/svg">
<g clip-path="url(#clip0_6900_81254)">
<path d="M23.6377 5.68441C23.31 4.7427 22.7011 3.92431 21.8932 3.33981C21.0854 2.75531 20.1176 2.43288 19.1207 2.4161C18.793 2.41546 18.4663 2.45154 18.1467 2.52365C17.7334 1.9556 17.1984 1.48711 16.5807 1.15242C15.9631 0.817731 15.2784 0.625311 14.5769 0.58923C13.8753 0.553149 13.1745 0.674319 12.5258 0.94388C11.8771 1.21344 11.2968 1.62458 10.8274 2.14723C10.1191 1.75139 9.32048 1.54555 8.50911 1.54973C7.20219 1.57643 5.95895 2.11928 5.051 3.0597C4.14305 4.00012 3.6442 5.26165 3.66341 6.56871V6.65833C2.59926 6.95484 1.66304 7.59496 1.00058 8.47897C0.338109 9.36298 -0.0134142 10.4413 0.000758969 11.5459C-0.0219631 12.8445 0.466285 14.1 1.36034 15.0421C2.25439 15.9843 3.48271 16.5375 4.78073 16.5827C5.07224 16.987 5.42036 17.3472 5.8144 17.6523L5.77258 17.718C5.72555 17.8021 5.69581 17.8947 5.6851 17.9905C5.67438 18.0862 5.68291 18.1831 5.71019 18.2755C5.73746 18.3679 5.78293 18.454 5.84392 18.5285C5.90492 18.6031 5.9802 18.6648 6.06535 18.7098H6.1012C7.00101 19.2532 7.8163 19.9256 8.52106 20.7055C9.77747 22.0198 10.4959 23.7572 10.5346 25.5751C10.5337 25.906 10.6477 26.2271 10.8573 26.4833C11.1439 26.8103 11.5266 27.0382 11.9507 27.1345C12.3569 27.2366 12.7747 27.2848 13.1935 27.2779C13.892 27.2808 14.587 27.1781 15.2548 26.9732C15.5501 26.8846 15.8301 26.7516 16.0854 26.5789C16.2215 26.4839 16.3406 26.3668 16.4379 26.2323C16.5631 26.0579 16.6319 25.8494 16.6351 25.6348C16.6351 24.0515 16.7725 23.0238 17.3282 21.9961C17.8838 20.9684 18.9295 19.863 20.8773 18.3274C20.9514 18.2691 21.0125 18.1958 21.0565 18.1123H21.1999C22.1441 18.1132 23.0656 17.8235 23.8395 17.2826C24.6134 16.7418 25.2021 15.9759 25.5258 15.089C26.2847 14.6356 26.912 13.9919 27.3459 13.2217C27.7797 12.4515 28.005 11.5814 27.9995 10.6974C28.0177 9.47126 27.5826 8.28155 26.7777 7.35642C25.9727 6.4313 24.8546 5.8359 23.6377 5.68441ZM16.0256 21.297C15.3863 22.5779 15.0879 24.0019 15.1592 25.4317C14.9688 25.5285 14.7685 25.6046 14.5618 25.6587C14.1161 25.7689 13.6585 25.8231 13.1995 25.82C12.8359 25.8451 12.4708 25.8005 12.124 25.6886C12.0717 25.6693 12.0231 25.641 11.9806 25.6049C11.9273 23.3113 10.9846 21.1281 9.35158 19.5165C9.04092 19.1892 8.71175 18.88 8.36571 18.5903H8.47924C9.14438 18.5819 9.80243 18.4524 10.4211 18.2079C10.4521 18.3278 10.5115 18.4385 10.5944 18.5306L10.6541 18.5963C10.9464 18.9183 11.214 19.2618 11.4548 19.624C11.7243 19.9732 11.9029 20.3838 11.9746 20.819C11.9746 21.0123 12.0514 21.1977 12.1881 21.3344C12.3248 21.4711 12.5102 21.5479 12.7035 21.5479C12.8969 21.5479 13.0823 21.4711 13.219 21.3344C13.3557 21.1977 13.4325 21.0123 13.4325 20.819C13.3606 20.0041 13.0534 19.2277 12.5482 18.5844L12.4526 18.4589C13.2133 18.7814 14.0196 18.983 14.8426 19.0564L14.3407 19.7136C14.2867 19.7927 14.249 19.8817 14.2297 19.9754C14.2104 20.0691 14.2099 20.1658 14.2283 20.2597C14.2466 20.3536 14.2834 20.443 14.3366 20.5226C14.3897 20.6022 14.4581 20.6704 14.5379 20.7234C14.6973 20.8314 14.893 20.8718 15.0822 20.836C15.2714 20.8002 15.4387 20.691 15.5476 20.5322L16.6291 18.9369C16.6701 18.879 16.7004 18.8142 16.7187 18.7457C17.144 18.5565 17.5323 18.2935 17.8659 17.9689C18.0971 17.7539 18.3165 17.5265 18.5232 17.2878C18.7765 17.4465 19.0422 17.5843 19.3178 17.7001C17.9996 18.6764 16.8818 19.8977 16.0256 21.297ZM24.5698 13.9358C24.4755 13.9833 24.3925 14.0506 24.3265 14.1331C24.2605 14.2156 24.2131 14.3114 24.1874 14.4138C23.997 15.0592 23.6034 15.6258 23.0652 16.0295C22.5269 16.4332 21.8728 16.6524 21.1999 16.6544C20.3481 16.6075 19.5337 16.2893 18.8757 15.7463C18.7344 15.625 18.5518 15.563 18.366 15.573C18.1801 15.583 18.0053 15.6643 17.8779 15.8C17.5313 16.1705 17.2505 16.5887 16.898 16.9173C16.5607 17.266 16.1173 17.4929 15.6372 17.5626C15.49 17.5717 15.3423 17.5717 15.1951 17.5626C13.936 17.4968 12.7199 17.0832 11.6818 16.3676C11.5548 16.2707 11.3994 16.2182 11.2397 16.2182C11.0799 16.2182 10.9245 16.2707 10.7975 16.3676C10.1254 16.8277 9.33522 17.0849 8.52106 17.1085C7.63677 17.1085 6.72857 16.7978 5.8144 15.4893C5.74467 15.384 5.64814 15.2991 5.53472 15.2434C5.4213 15.1878 5.2951 15.1634 5.1691 15.1727C5.07479 15.1246 4.97025 15.1 4.86438 15.101C3.93987 15.0744 3.06373 14.6819 2.42848 14.0097C1.79324 13.3374 1.45085 12.4405 1.47658 11.516C1.45155 10.6456 1.75066 9.79685 2.3159 9.13446C2.88114 8.47207 3.67223 8.04319 4.53576 7.931C4.63531 7.92217 4.73191 7.89263 4.81938 7.84427C4.90684 7.79591 4.98322 7.72979 5.04363 7.65017C5.14073 7.50847 5.18513 7.33723 5.1691 7.1662C5.13764 6.96858 5.12165 6.76881 5.1213 6.56871C5.09717 5.64461 5.44009 4.74859 6.075 4.07672C6.70992 3.40485 7.58513 3.01185 8.50911 2.98373C9.24333 2.99126 9.95405 3.24358 10.5287 3.70072C10.6067 3.76317 10.6969 3.80874 10.7935 3.83456C10.8901 3.86038 10.991 3.86588 11.0898 3.85072C11.1887 3.83556 11.2833 3.80007 11.3677 3.74648C11.4521 3.69289 11.5245 3.62238 11.5802 3.5394C11.8891 3.06687 12.3148 2.68206 12.816 2.42219C13.3171 2.16233 13.8769 2.03621 14.4411 2.05604C15.0053 2.07587 15.5548 2.24097 16.0365 2.53538C16.5182 2.82978 16.9158 3.24352 17.1907 3.73657C17.2765 3.88116 17.4096 3.99166 17.5675 4.04937C17.7253 4.10708 17.8983 4.10845 18.0571 4.05324C18.3991 3.93435 18.7586 3.87376 19.1207 3.874C19.8872 3.89469 20.6247 4.1712 21.2159 4.65953C21.8071 5.14785 22.2179 5.8199 22.383 6.56871C22.4211 6.72924 22.5131 6.8719 22.6435 6.97298C22.7739 7.07406 22.935 7.12749 23.1 7.12438H23.1597C24.079 7.1602 24.9472 7.55637 25.5767 8.22721C26.2061 8.89806 26.5463 9.7897 26.5236 10.7094C26.53 11.3756 26.3505 12.0304 26.0054 12.6003C25.6603 13.1702 25.1631 13.6327 24.5698 13.9358Z" fill="#E59CBD"/>
<path d="M5.55124 11.6536C5.5474 10.815 5.76594 9.9903 6.18459 9.26363C6.46818 8.77969 6.87433 8.37906 7.36211 8.10213C7.84989 7.82519 8.40206 7.68174 8.96295 7.68624C9.11147 7.26294 9.35702 6.88029 9.67994 6.56892C10.2232 6.03749 10.9515 5.7376 11.7114 5.73242C12.3578 5.73242 12.9868 5.94208 13.5039 6.32992C14.1135 6.00926 14.7873 5.82958 15.4757 5.80412C15.9983 5.79762 16.5093 5.95887 16.9336 6.26419C17.4347 6.67138 17.784 7.23546 17.9254 7.86548C17.9768 8.05168 17.9521 8.25064 17.8569 8.41868C17.7617 8.58672 17.6036 8.71011 17.4175 8.76173C17.3257 8.78809 17.2296 8.79599 17.1347 8.78499C17.0399 8.77399 16.9481 8.7443 16.8648 8.69763C16.7814 8.65096 16.7082 8.58824 16.6492 8.5131C16.5903 8.43796 16.5468 8.35188 16.5213 8.25983C16.4628 7.94723 16.2982 7.66441 16.0552 7.45919C15.8834 7.33146 15.6713 7.26994 15.4577 7.28591C14.878 7.33674 14.3188 7.52519 13.8266 7.83561H13.7967C13.6595 7.93121 13.4935 7.97631 13.3268 7.96323C13.1601 7.95016 13.0031 7.87972 12.8825 7.76391C12.7353 7.58729 12.5532 7.44303 12.3475 7.34021C12.1419 7.23738 11.9172 7.17821 11.6875 7.16641C11.3047 7.17755 10.9408 7.33592 10.6718 7.60856C10.437 7.82039 10.2899 8.11238 10.2595 8.42713C10.2606 8.53156 10.2387 8.63496 10.1953 8.72997C10.152 8.82497 10.0882 8.90926 10.0086 8.97683C9.92838 9.04873 9.83303 9.10165 9.72959 9.13164C9.62615 9.16164 9.51728 9.16795 9.41107 9.1501C9.26978 9.14202 9.12814 9.14202 8.98685 9.1501C8.66531 9.12818 8.34415 9.19796 8.0607 9.35132C7.77724 9.50468 7.54313 9.73533 7.38556 10.0165C7.10753 10.5195 6.96158 11.0848 6.96133 11.6596C6.96133 11.8529 6.88454 12.0383 6.74783 12.175C6.61113 12.3117 6.42572 12.3885 6.23239 12.3885C6.13644 12.3893 6.04129 12.371 5.95249 12.3347C5.86369 12.2983 5.78302 12.2447 5.71517 12.1768C5.64732 12.109 5.59366 12.0283 5.55731 11.9395C5.52096 11.8507 5.50265 11.7555 5.50344 11.6596L5.55124 11.6536Z" fill="#E59CBD"/>
<path d="M11.6817 14.7004C11.2668 14.5982 10.8845 14.3926 10.5704 14.1029C10.5024 14.0357 10.4485 13.9557 10.4117 13.8675C10.3749 13.7793 10.356 13.6846 10.356 13.5891C10.356 13.4935 10.3749 13.3989 10.4117 13.3107C10.4485 13.2225 10.5024 13.1425 10.5704 13.0752C10.7069 12.9395 10.8917 12.8633 11.0842 12.8633C11.2767 12.8633 11.4615 12.9395 11.598 13.0752L11.6996 13.129C11.817 13.1834 11.939 13.2274 12.0641 13.2605C12.4038 13.3595 12.7559 13.4097 13.1097 13.4098C13.3623 13.4374 13.6179 13.4071 13.8571 13.3212C14.0962 13.2352 14.3126 13.096 14.4899 12.9139C14.5444 12.8349 14.6138 12.7675 14.6944 12.7154C14.775 12.6633 14.865 12.6277 14.9594 12.6105C15.0537 12.5933 15.1506 12.5948 15.2443 12.6151C15.338 12.6354 15.4269 12.674 15.5057 12.7287C15.5842 12.7836 15.6511 12.8534 15.7026 12.9342C15.7541 13.0149 15.7892 13.1051 15.8058 13.1994C15.8225 13.2937 15.8204 13.3904 15.7996 13.4839C15.7789 13.5775 15.7399 13.666 15.6849 13.7444C15.3874 14.1311 15.0016 14.4408 14.5598 14.6477C14.118 14.8545 13.633 14.9525 13.1456 14.9334C12.6564 14.9339 12.1697 14.8655 11.6996 14.7303L11.6817 14.7004Z" fill="#E59CBD"/>
<path d="M19.4014 13.3262C19.3692 13.236 19.355 13.1403 19.3598 13.0446C19.3646 12.9489 19.3882 12.855 19.4292 12.7685C19.4703 12.6819 19.528 12.6043 19.5991 12.54C19.6702 12.4758 19.7533 12.4262 19.8435 12.3941C19.9801 12.3193 20.0906 12.2047 20.1602 12.0655C20.2868 11.8475 20.3548 11.6005 20.3574 11.3485C20.3599 11.1864 20.3295 11.0254 20.2678 10.8754C20.2062 10.7255 20.1147 10.5896 19.9989 10.4761C19.9308 10.4084 19.8767 10.3279 19.8399 10.2392C19.803 10.1505 19.784 10.0554 19.784 9.9593C19.784 9.86324 19.803 9.76813 19.8399 9.67943C19.8767 9.59073 19.9308 9.5102 19.9989 9.44246C20.1372 9.30778 20.3227 9.23242 20.5157 9.23242C20.7088 9.23242 20.8942 9.30778 21.0326 9.44246C21.2819 9.6928 21.479 9.99023 21.6124 10.3175C21.7457 10.6447 21.8127 10.9951 21.8093 11.3485C21.81 11.8601 21.6761 12.3629 21.4209 12.8064C21.1785 13.2482 20.7866 13.5892 20.3156 13.7683C20.2364 13.7943 20.1539 13.8084 20.0706 13.8102C19.9201 13.8103 19.7733 13.7638 19.6503 13.6772C19.5272 13.5905 19.434 13.4679 19.3835 13.3262H19.4014Z" fill="#E59CBD"/>
</g>
<defs>
<clipPath id="clip0_6900_81254">
<rect width="28" height="28" fill="white"/>
</clipPath>
</defs>
</svg>
